<!-- Placeholder for a multi-device mockup of this site. -->
<svg xmlns="http://www.w3.org/2000/svg" viewBox="0 0 640 400">
  <rect width="640" height="400" fill="#0E1730"/>

  <!-- desktop frame -->
  <rect x="60" y="70" width="420" height="250" rx="10" fill="#131C31" stroke="#1E293B" stroke-width="2"/>
  <rect x="60" y="70" width="420" height="26" rx="10" fill="#0B1121"/>
  <circle cx="80" cy="83" r="4" fill="#1E293B"/><circle cx="94" cy="83" r="4" fill="#1E293B"/>
  <circle cx="108" cy="83" r="4" fill="#1E293B"/>
  <text x="90" y="150" font-family="'JetBrains Mono', monospace" font-size="12" fill="#22D3EE">مرحبا · Hello · Halo</text>
  <rect x="90" y="164" width="220" height="18" rx="4" fill="#E2E8F0" opacity="0.85"/>
  <rect x="90" y="192" width="160" height="10" rx="5" fill="#A78BFA" opacity="0.7"/>
  <rect x="90" y="212" width="240" height="7" rx="3.5" fill="#1E293B"/>
  <rect x="90" y="226" width="200" height="7" rx="3.5" fill="#1E293B"/>
  <rect x="90" y="250" width="86" height="26" rx="13" fill="#22D3EE"/>
  <rect x="186" y="250" width="86" height="26" rx="13" fill="none" stroke="#22D3EE" stroke-width="2"/>
  <circle cx="400" cy="200" r="46" fill="none" stroke="#22D3EE" stroke-width="3" opacity="0.6"/>

  <!-- phone frame -->
  <rect x="500" y="120" width="90" height="180" rx="14" fill="#131C31" stroke="#1E293B" stroke-width="2"/>
  <rect x="530" y="128" width="30" height="4" rx="2" fill="#1E293B"/>
  <circle cx="545" cy="168" r="18" fill="none" stroke="#22D3EE" stroke-width="2" opacity="0.6"/>
  <rect x="514" y="200" width="62" height="8" rx="4" fill="#E2E8F0" opacity="0.8"/>
  <rect x="514" y="216" width="44" height="6" rx="3" fill="#A78BFA" opacity="0.7"/>
  <rect x="514" y="234" width="62" height="18" rx="9" fill="#22D3EE"/>

  <text x="60" y="360" font-family="'JetBrains Mono', monospace" font-size="15" fill="#94A3B8">
    responsive, hand-coded
  </text>
</svg>
